<?xml version="1.0" encoding="UTF-8" standalone="no"?>
<svg
   xmlns:dc="http://purl.org/dc/elements/1.1/"
   xmlns:cc="http://creativecommons.org/ns#"
   xmlns:rdf="http://www.w3.org/1999/02/22-rdf-syntax-ns#"
   xmlns:svg="http://www.w3.org/2000/svg"
   xmlns="http://www.w3.org/2000/svg"
   xmlns:sodipodi="http://sodipodi.sourceforge.net/DTD/sodipodi-0.dtd"
   xmlns:inkscape="http://www.inkscape.org/namespaces/inkscape"
   width="200"
   height="200"
   viewBox="0 0 52.916665 52.916668"
   version="1.1"
   id="svg8"
   inkscape:version="1.0.1 (3bc2e813f5, 2020-09-07)"
   sodipodi:docname="logo.svg">
  <defs
     id="defs2">
    <rect
       x="2.6417906"
       y="3.8302461"
       width="47.340825"
       height="45.347119"
       id="rect12" />
  </defs>
  <sodipodi:namedview
     id="base"
     pagecolor="#ffffff"
     bordercolor="#666666"
     borderopacity="1.0"
     inkscape:pageopacity="0.0"
     inkscape:pageshadow="2"
     inkscape:zoom="0.98994949"
     inkscape:cx="23.854889"
     inkscape:cy="51.258028"
     inkscape:document-units="mm"
     inkscape:current-layer="layer1"
     inkscape:document-rotation="0"
     showgrid="false"
     units="px"
     inkscape:window-width="1366"
     inkscape:window-height="723"
     inkscape:window-x="0"
     inkscape:window-y="20"
     inkscape:window-maximized="1" />
  <metadata
     id="metadata5">
    <rdf:RDF>
      <cc:Work
         rdf:about="">
        <dc:format>image/svg+xml</dc:format>
        <dc:type
           rdf:resource="http://purl.org/dc/dcmitype/StillImage" />
        <dc:title></dc:title>
      </cc:Work>
    </rdf:RDF>
  </metadata>
  <g
     inkscape:label="Layer 1"
     inkscape:groupmode="layer"
     id="layer1">
    <rect
       style="fill:#2c3e50;fill-opacity:1;stroke-width:0.262819"
       id="rect19"
       width="52.916668"
       height="52.916668"
       x="-6.357829e-07"
       y="-6.357829e-07"
       ry="8.4009562" />
    <g
       aria-label="U"
       id="text10"
       style="font-style:normal;font-weight:normal;font-size:10.5833px;line-height:1.25;font-family:sans-serif;white-space:pre;shape-inside:url(#rect12);fill:#ffffff;fill-opacity:1;stroke:none"
       transform="matrix(2.4276098,0,0,2.4276098,-4.5288387,-13.994245)">
      <path
         d="m 21.209978,11.780278 h -2.3876 v 8.4074 q 0,1.2954 -0.4318,2.1844 -0.4064,0.8636 -1.0414,1.4478 -0.635,0.5588 -1.3716,0.8636 -0.7366,0.3048 -1.397,0.4572 -0.635,0.127 -1.0922,0.1524 -0.4318,0.0254 -0.4826,0.0254 -1.4224,0 -2.4384,-0.3302 -0.9906,-0.3302 -1.6764,-0.8382 -0.6858,-0.5334 -1.0922,-1.143 -0.4063999,-0.635 -0.6349999,-1.2192 -0.2286,-0.5842 -0.3048,-1.0414 -0.0508,-0.4826 -0.0508,-0.6858 0,-0.0508 0,-0.3048 0,-0.2794 0,-1.1176 0.0254,-0.8382 0.0254,-2.4384 0,-1.6002 0,-4.318 h -2.5146 v -2.5146 h 7.7723999 v 2.5146 h -2.3622 v 7.0866 q 0.0508,1.0668 0.4318,1.905 0.1524,0.3556 0.4064,0.6858 0.254,0.3302 0.6096,0.6096 0.3556,0.254 0.8382,0.4318 0.4826,0.1524 1.1176,0.1524 1.016,0 1.5748,-0.2794 0.5842,-0.3048 0.8636,-0.8128 0.2794,-0.508 0.3556,-1.1938 0.0762,-0.7112 0.0762,-1.5494 v -7.1374 h -1.9812 v -2.4384 h 7.1882 z m 0.4826,-2.921 h -8.1534 v 3.4036 h 2.0066 v 6.6548 q 0,0.7366 -0.0762,1.3462 -0.0508,0.6096 -0.3048,1.0668 -0.2286,0.4572 -0.7112,0.7112 -0.4826,0.254 -1.3208,0.254 -1.0922,0 -1.7018,-0.508 -0.5842,-0.508 -0.8636,-1.143 -0.3302,-0.7366 -0.381,-1.6764 v -6.6294 h 2.3876 v -3.4544 H 3.8363781 v 3.4544 h 2.54 q 0,2.413 0,3.8862 0,1.4478 -0.0254,2.2606 0,0.7874 0,1.0922 0,0.3048 0,0.4064 0,0.2286 0.0762,0.762 0.0762,0.5334 0.3048,1.1684 0.2286,0.635 0.6604,1.3208 0.4571999,0.6858 1.1937999,1.27 0.7366,0.5588 1.8034,0.9144 1.0922,0.3556 2.6162,0.3556 0.0508,0 0.5334,-0.0254 0.4826,-0.0254 1.1684,-0.1778 0.7112,-0.1524 1.4986,-0.4826 0.8128,-0.3556 1.4732,-0.9652 0.6858,-0.635 1.143,-1.5748 0.4572,-0.9652 0.4572,-2.3622 v -7.9248 h 2.413 z m 0.2286,3.6322 h -2.3876 v 7.6962 q 0,1.4478 -0.4826,2.4638 -0.4572,0.9906 -1.1684,1.651 -0.7112,0.635 -1.5494,0.9906 -0.8382,0.3302 -1.5748,0.508 -0.7112,0.1524 -1.2192,0.1778 -0.4826,0.0254 -0.5334,0.0254 -1.5748,0 -2.6924,-0.381 -1.1176,-0.381 -1.8796,-0.9652 -0.762,-0.5842 -1.2191999,-1.27 -0.4572,-0.7112 -0.7112,-1.3716 -0.2286,-0.6858 -0.3048,-1.2192 -0.0762,-0.5588 -0.0762,-0.8128 0,-0.1016 0,-0.3556 0,-0.2794 0,-1.0414 0.0254,-0.762 0.0254,-2.159 0,-1.4224 0,-3.8354 h -2.54 V 8.6560781 h 9.1947999 v 3.9369999 h -2.3876 v 6.3754 q 0.0508,0.889 0.3556,1.5494 0.2794,0.5842 0.8128,1.0668 0.5334,0.4826 1.5494,0.4826 0.762,0 1.1938,-0.2286 0.4318,-0.254 0.6604,-0.6604 0.2286,-0.4318 0.2794,-0.9906 0.0508,-0.5842 0.0508,-1.27 v -6.4262 h -2.0066 V 8.6306781 h 8.6106 z"
         style="font-style:normal;font-variant:normal;font-weight:normal;font-stretch:normal;font-size:25.4px;font-family:Bascula;-inkscape-font-specification:'Bascula, Normal';font-variant-ligatures:normal;font-variant-caps:normal;font-variant-numeric:normal;font-variant-east-asian:normal;fill:#ffffff"
         id="path16" />
    </g>
  </g>
</svg>
